name C:\Users\antoi\Documents\MyRepositories\upper-imu-dc\Results\main_tracking\Case_70\ABD01_orientations_groundFrame.mot
datacolumns 13
datarows 36
range 4.56000000 4.91000000
endheader 
time	radius_imu_[0][0]	radius_imu_[0][1]	radius_imu_[0][2]	radius_imu_[1][0]	radius_imu_[1][1]	radius_imu_[1][2]	radius_imu_[2][0]	radius_imu_[2][1]	radius_imu_[2][2]	radius_imu_x	radius_imu_y	radius_imu_z	
          4.56000000	          0.96008648	          0.17484869	          0.21831603	         -0.23305166	          0.06847117	          0.97005084	          0.15466377	         -0.98221160	          0.10648702	         -1.46145943	          0.22008855	         -0.18014337	
          4.57000000	          0.95995775	          0.17594630	          0.21800006	         -0.23150073	          0.05999908	          0.97098276	          0.15776102	         -0.98256960	          0.09832828	         -1.46987362	          0.21976477	         -0.18127346	
          4.58000000	          0.95985262	          0.17701531	          0.21759718	         -0.22982752	          0.05155172	          0.97186508	          0.16081749	         -0.98285706	          0.09016505	         -1.47828587	          0.21935198	         -0.18237019	
          4.59000000	          0.95976467	          0.17805497	          0.21713638	         -0.22806236	          0.04313078	          0.97269075	          0.16382717	         -0.98307485	          0.08200303	         -1.48668986	          0.21887989	         -0.18343394	
          4.60000000	          0.95968759	          0.17906475	          0.21664612	         -0.22623521	          0.03473760	          0.97345310	          0.16678537	         -0.98322384	          0.07384799	         -1.49507946	          0.21837769	         -0.18446533	
          4.61000000	          0.95961549	          0.18004437	          0.21615303	         -0.22437424	          0.02637329	          0.97414611	          0.16968886	         -0.98330487	          0.06570554	         -1.50344897	          0.21787262	         -0.18546520	
          4.62000000	          0.95954318	          0.18099391	          0.21568053	         -0.22250452	          0.01803881	          0.97476476	          0.17253587	         -0.98331877	          0.05758098	         -1.51179322	          0.21738871	         -0.18643460	
          4.63000000	          0.95946643	          0.18191379	          0.21524763	         -0.22064670	          0.00973520	          0.97530521	          0.17532599	         -0.98326629	          0.04947928	         -1.52010769	          0.21694540	         -0.18737480	
          4.64000000	          0.95938220	          0.18280478	          0.21486786	         -0.21881595	          0.00146374	          0.97576505	          0.17806000	         -0.98314814	          0.04140489	         -1.52838851	          0.21655653	         -0.18828720	
          4.65000000	          0.95928883	          0.18366790	          0.21454846	         -0.21702110	         -0.00677388	          0.97614341	          0.18073954	         -0.98296501	          0.03336170	         -1.53663258	          0.21622950	         -0.18917317	
          4.66000000	          0.95918608	          0.18450433	          0.21429002	         -0.21526430	         -0.01497550	          0.97644099	          0.18336669	         -0.98271760	          0.02535290	         -1.54483756	          0.21596491	         -0.19003400	
          4.67000000	          0.95907515	          0.18531524	          0.21408672	         -0.21354116	         -0.02313850	          0.97666001	          0.18594363	         -0.98240667	          0.01738087	         -1.55300197	          0.21575678	         -0.19087066	
          4.68000000	          0.95895849	          0.18610166	          0.21392707	         -0.21184159	         -0.03125987	          0.97680395	          0.18847217	         -0.98203309	          0.00944716	         -1.56112513	          0.21559334	         -0.19168376	
          4.69000000	          0.95883953	          0.18686434	          0.21379540	         -0.21015120	         -0.03933643	          0.97687723	          0.19095347	         -0.98159786	          0.00155244	         -1.56920714	          0.21545855	         -0.19247339	
          4.70000000	          0.95872229	          0.18760359	          0.21367372	         -0.20845322	         -0.04736503	          0.97688475	          0.19338775	         -0.98110216	         -0.00630333	         -1.57724872	          0.21533399	         -0.19323910	
          4.71000000	          0.95861095	          0.18831924	          0.21354372	         -0.20673049	         -0.05534277	          0.97683145	          0.19577425	         -0.98054732	         -0.01412085	         -1.58525109	          0.21520092	         -0.19397990	
          4.72000000	          0.95850943	          0.18901055	          0.21338856	         -0.20496732	         -0.06326722	          0.97672189	          0.19811124	         -0.97993483	         -0.02190124	         -1.59321578	          0.21504210	         -0.19469427	
          4.73000000	          0.95842118	          0.18967623	          0.21319419	         -0.20315077	         -0.07113654	          0.97655996	          0.20039611	         -0.97926632	         -0.02964589	         -1.60114448	          0.21484315	         -0.19538021	
          4.74000000	          0.95834892	          0.19031431	          0.21295028	         -0.20127166	         -0.07894960	          0.97634865	          0.20262546	         -0.97854352	         -0.03735638	         -1.60903899	          0.21459351	         -0.19603521	
          4.75000000	          0.95829453	          0.19092220	          0.21265068	         -0.19932503	         -0.08670601	          0.97608995	          0.20479533	         -0.97776827	         -0.04503432	         -1.61690110	          0.21428689	         -0.19665625	
          4.76000000	          0.95825905	          0.19149668	          0.21229371	         -0.19731045	         -0.09440612	          0.97578485	          0.20690139	         -0.97694243	         -0.05268122	         -1.62473253	          0.21392158	         -0.19723990	
          4.77000000	          0.95824260	          0.19203406	          0.21188214	         -0.19523202	         -0.10205091	          0.97543327	          0.20893918	         -0.97606789	         -0.06029833	         -1.63253474	          0.21350042	         -0.19778240	
          4.78000000	          0.95824444	          0.19253029	          0.21142299	         -0.19309818	         -0.10964190	          0.97503423	          0.21090444	         -0.97514652	         -0.06788649	         -1.64030888	          0.21303063	         -0.19827983	
          4.79000000	          0.95826303	          0.19298112	          0.21092710	         -0.19092133	         -0.11718103	          0.97458589	          0.21279333	         -0.97418011	         -0.07544604	         -1.64805567	          0.21252330	         -0.19872826	
          4.80000000	          0.95829617	          0.19338233	          0.21040847	         -0.18871706	         -0.12467048	          0.97408580	          0.21460270	         -0.97317036	         -0.08297670	         -1.65577536	          0.21199277	         -0.19912388	
          4.81000000	          0.95834113	          0.19372988	          0.20988332	         -0.18650330	         -0.13211255	          0.97353109	          0.21633029	         -0.97211882	         -0.09047763	         -1.66346771	          0.21145562	         -0.19946324	
          4.82000000	          0.95839489	          0.19402018	          0.20936905	         -0.18429919	         -0.13950956	          0.97291875	          0.21797486	         -0.97102691	         -0.09794749	         -1.67113213	          0.21092967	         -0.19974334	
          4.83000000	          0.95845431	          0.19425022	          0.20888319	         -0.18212395	         -0.14686376	          0.97224580	          0.21953633	         -0.96989581	         -0.10538458	         -1.67876773	          0.21043281	         -0.19996183	
          4.84000000	          0.95851633	          0.19441770	          0.20844231	         -0.17999579	         -0.15417730	          0.97150959	          0.22101573	         -0.96872654	         -0.11278709	         -1.68637361	          0.20998202	         -0.20011706	
          4.85000000	          0.95857814	          0.19452112	          0.20806125	         -0.17793104	         -0.16145231	          0.97070783	          0.22241514	         -0.96751986	         -0.12015331	         -1.69394899	          0.20959241	         -0.20020812	
          4.86000000	          0.95863726	          0.19455983	          0.20775243	         -0.17594340	         -0.16869089	          0.96983880	          0.22373761	         -0.96627628	         -0.12748185	         -1.70149346	          0.20927670	         -0.20023489	
          4.87000000	          0.95869162	          0.19453408	          0.20752557	         -0.17404362	         -0.17589526	          0.96890127	          0.22498708	         -0.96499604	         -0.13477190	         -1.70900716	          0.20904478	         -0.20019804	
          4.88000000	          0.95873957	          0.19444499	          0.20738751	         -0.17223926	         -0.18306790	          0.96789451	          0.22616823	         -0.96367904	         -0.14202338	         -1.71649097	          0.20890365	         -0.20009904	
          4.89000000	          0.95877986	          0.19429440	          0.20734238	         -0.17053479	         -0.19021167	          0.96681819	          0.22728630	         -0.96232490	         -0.14923716	         -1.72394668	          0.20885752	         -0.19993999	
          4.90000000	          0.95881164	          0.19408482	          0.20739173	         -0.16893173	         -0.19732990	          0.96567229	          0.22834692	         -0.96093288	         -0.15641512	         -1.73137705	          0.20890796	         -0.19972357	
          4.91000000	          0.95883442	          0.19381928	          0.20753466	         -0.16742881	         -0.20442634	          0.96445708	          0.22935593	         -0.95950193	         -0.16356008	         -1.73878575	          0.20905407	         -0.19945290	
